PathFileType	4	(X/Y/Z)	E:\Qualisys_Data\Carbon_Farble_Plate\Data\Amateur_Runner\S2\T1\S2T1V12_c3d.trc
DataRate	CameraRate	NumFrames	NumMarkers	Units	OrigDataRate	OrigDataStartFrame	OrigNumFrames
200.000000	200.000000	4	39	mm	200.000000	280	320
Frame#	Time	LSHO			RSHO			LICST			RICST			LASIS			LHEEL			RASIS			LTROC			RTROC			SACR			LTH1			LSK4			LTH2			LTH3			RHM5			LSK2			LTH4			RTH1			LTOE			RTH2			RTH3			RTH4			LLEP			RLEP			LSK1			LSK3			RSK1			LHM5			RSK2			LFT1			RSK3			RSK4			LLME			RLME			RTOE			RHEEL			RFT1			RFT2			LFT2			
		X1	Y1	Z1	X2	Y2	Z2	X3	Y3	Z3	X4	Y4	Z4	X5	Y5	Z5	X6	Y6	Z6	X7	Y7	Z7	X8	Y8	Z8	X9	Y9	Z9	X10	Y10	Z10	X11	Y11	Z11	X12	Y12	Z12	X13	Y13	Z13	X14	Y14	Z14	X15	Y15	Z15	X16	Y16	Z16	X17	Y17	Z17	X18	Y18	Z18	X19	Y19	Z19	X20	Y20	Z20	X21	Y21	Z21	X22	Y22	Z22	X23	Y23	Z23	X24	Y24	Z24	X25	Y25	Z25	X26	Y26	Z26	X27	Y27	Z27	X28	Y28	Z28	X29	Y29	Z29	X30	Y30	Z30	X31	Y31	Z31	X32	Y32	Z32	X33	Y33	Z33	X34	Y34	Z34	X35	Y35	Z35	X36	Y36	Z36	X37	Y37	Z37	X38	Y38	Z38	X39	Y39	Z39	

281	1.4	2249.986572265625	1478.330688476562	-421.60107421875	2205.98193359375	1470.310180664062	-113.8183364868164	2178.447021484375	1013.21337890625	-399.7069702148438	2181.811767578125	1024.776489257812	-100.9878921508789	2228.691162109375	959.6458740234376	-384.7843933105469	1748.293090820312	231.3485107421875	-264.8822937011719	2239.608154296875	976.0677490234376	-128.0821075439453	2081.104248046875	908.6021118164062	-393.3340454101562	2113.2001953125	923.2882690429688	-78.47901153564453	2088.09375	1062.001342773438	-257.8074340820312	2132.356689453125	649.28466796875	-389.3362426757812	1857.144287109375	362.7492065429688	-355.8206481933594	2052.880615234375	675.8493041992188	-397.4685974121094	2098.421630859375	555.0303955078125	-362.7369384765625	2210.7197265625	133.5876312255859	-68.38027954101562	1911.3642578125	445.3337097167969	-374.1253356933594	2018.342529296875	584.7296142578125	-367.792724609375	2347.724853515625	714.1171875	-79.4461898803711	1890.595703125	50.04205703735352	-255.2993774414062	2276.242431640625	685.161376953125	-68.40093231201172	2382.39111328125	619.9208374023438	-95.64652252197266	2307.001220703125	593.9473876953125	-84.86421966552734	2031.942138671875	526.5111083984375	-365.9432373046875	2336.737548828125	568.2927856445312	-85.88679504394531	1976.585205078125	403.1287231445312	-368.2051696777344	1922.204833984375	318.7638854980469	-354.2288208007812	2312.004150390625	448.4993286132812	-81.06480407714844	1840.507446289062	61.06203079223633	-323.3745727539062	2244.910400390625	493.4767150878906	-76.77542877197266	1739.21728515625	210.3663330078125	-232.6130981445312	2255.570556640625	363.7934875488281	-90.54304504394533	2191.007080078125	410.6956787109375	-89.40459442138672	1795.668823242188	189.2620697021484	-319.7744140625	2121.627685546875	230.2261199951172	-116.8336181640625	2277.642578125	123.9350204467773	-121.7725524902344	2068.658447265625	237.9770965576172	-180.4857330322266	2075.535400390625	205.0982055664062	-209.2161560058594	2053.177978515625	215.2416687011719	-156.2518768310547	1726.310424804688	208.0611114501953	-285.7623901367188
282	1.405	2267.724853515625	1482.433471679688	-420.2199096679688	2221.903076171875	1473.71044921875	-113.6469650268555	2195.488037109375	1016.49609375	-399.66259765625	2198.92138671875	1028.352783203125	-101.3458786010742	2246.00537109375	962.5693359375	-384.6181640625	1761.258544921875	239.9648284912109	-268.5218505859375	2256.28662109375	979.125732421875	-128.4129638671875	2097.835693359375	913.2317504882812	-393.4953002929688	2130.454345703125	927.0454711914062	-78.10075378417969	2104.995849609375	1065.363403320312	-258.1805114746094	2144.68310546875	653.3969116210938	-390.4856567382812	1867.525756835938	369.3420104980469	-357.5673828125	2064.9755859375	680.4268798828125	-398.1073913574219	2109.1416015625	559.6602172851562	-364.3478393554688	2246.05078125	129.8361663818359	-68.19237518310547	1922.032958984375	451.0139770507812	-375.1439819335938	2029.784912109375	590.6224365234375	-368.2815856933594	2364.149169921875	717.1044311523438	-80.12996673583984	1894.930297851562	49.65995788574219	-256.3698120117188	2292.64453125	688.5401611328125	-68.92681884765625	2398.109375	622.525634765625	-96.22144317626952	2322.592529296875	597.37109375	-85.82106018066406	2043.039916992188	532.3614501953125	-366.3637390136719	2352.15625	570.803955078125	-86.65045928955078	1986.926879882812	409.0567016601562	-369.706298828125	1932.6923828125	324.5441284179688	-356.3409423828125	2332.167236328125	449.258544921875	-80.93167114257812	1846.068725585938	62.77194595336914	-324.3922729492188	2263.533203125	490.7964782714844	-77.24217224121094	1751.284057617188	220.1613006591797	-235.8887634277344	2279.85546875	362.3684997558594	-90.04316711425781	2213.210693359375	405.7354125976562	-89.60179901123047	1806.207275390625	194.843994140625	-322.823486328125	2152.454345703125	221.5741424560547	-117.5540008544922	2314.03076171875	123.9215850830078	-120.8670043945312	2099.406494140625	226.5159454345703	-181.0781860351562	2108.16455078125	194.2822570800781	-209.783935546875	2084.902099609375	203.1489562988281	-157.1310272216797	1738.457641601562	217.5823669433594	-289.6703796386719
283	1.41	2284.732177734375	1485.614013671875	-418.8680419921875	2238.055908203125	1476.76220703125	-113.6590118408203	2212.832275390625	1019.36865234375	-399.265869140625	2216.112060546875	1031.500366210938	-101.7289428710938	2263.1865234375	965.7022705078124	-384.835693359375	1775.794921875	248.7590789794922	-273.1744689941406	2273.342041015625	982.08935546875	-128.6995086669922	2114.56884765625	917.4180908203124	-393.47265625	2147.651123046875	930.7889404296876	-78.25823211669922	2121.978271484375	1068.990844726562	-258.9222106933594	2156.9345703125	657.7703857421875	-391.7704467773438	1878.535400390625	375.5181579589844	-359.0639953613281	2077.898681640625	686.1715698242188	-398.2101440429688	2120.297119140625	564.0999755859375	-365.7656555175781	2281.74267578125	126.8649749755859	-67.32976531982422	1933.264038085938	456.9331665039062	-375.6998291015625	2041.511596679688	596.4802856445312	-368.7221069335938	2380.095947265625	719.3916015625	-81.09644317626953	1899.372924804688	49.16847229003906	-257.8910522460938	2308.03369140625	691.271728515625	-70.59879302978516	2413.52490234375	624.8191528320312	-96.65280151367188	2337.8515625	599.9295654296875	-87.07096862792969	2054.148193359375	537.7525634765625	-367.1619262695312	2367.2236328125	572.8070678710938	-86.19480895996094	1997.963989257812	414.4537963867188	-371.1454467773438	1943.285522460938	330.0200500488281	-358.4292297363281	2352.127197265625	449.6101379394531	-80.91325378417969	1851.378051757812	64.98770904541016	-325.4840698242188	2281.74462890625	488.1119384765625	-77.34124755859375	1763.376220703125	229.7151489257812	-239.5681915283203	2304.21533203125	360.4601135253906	-89.57333374023438	2235.399658203125	400.5757446289062	-90.12067413330078	1816.959838867188	200.6797637939453	-325.6438293457031	2183.316162109375	213.8743591308594	-116.3549346923828	2349.749267578125	124.2066650390625	-120.6405029296875	2130.548583984375	215.4226379394531	-181.2418365478516	2140.984130859375	183.5797729492188	-209.7185516357422	2117.287109375	191.4824676513672	-157.30029296875	1751.252685546875	227.12841796875	-293.2772216796875
284	1.415	2301.943603515625	1488.815795898438	-417.4702758789062	2254.185302734375	1479.157470703125	-113.0790252685547	2229.981689453125	1021.943969726562	-399.1634216308594	2233.35791015625	1034.371215820312	-102.2395553588867	2280.5263671875	968.0001220703124	-384.7954711914062	1789.324951171875	256.7389526367188	-276.8163757324219	2290.43408203125	984.7882690429688	-128.9922637939453	2131.38427734375	920.8790283203124	-393.5598449707031	2164.642822265625	933.8594360351562	-79.11653137207031	2139.164794921875	1071.917114257812	-258.8810424804688	2168.665771484375	661.8750610351562	-392.4536743164062	1889.973876953125	380.9792785644531	-360.3863220214844	2090.7548828125	691.110107421875	-398.5516052246094	2131.645751953125	568.3150024414062	-367.3718872070312	2317.7529296875	124.1066741943359	-68.15096282958984	1944.885375976562	462.9559020996094	-376.7346801757812	2053.097900390625	601.536865234375	-368.6244201660156	2395.5576171875	721.4684448242188	-81.36918640136719	1903.66064453125	48.8179931640625	-259.8126525878906	2323.058837890625	693.748291015625	-71.77348327636719	2428.418212890625	626.6487426757812	-97.26842498779295	2352.732421875	602.3193359375	-88.03016662597656	2065.69677734375	542.4674682617188	-367.5780029296875	2382.511474609375	574.5383911132812	-87.1900405883789	2009.310302734375	420.1842651367188	-372.2361145019531	1954.543212890625	335.5589599609375	-360.583251953125	2372.395751953125	450.0492553710938	-80.76416778564453	1856.974487304688	67.23358917236328	-327.2108459472656	2300.0615234375	485.0912475585938	-78.31005096435547	1776.0576171875	238.8149719238281	-242.8413391113281	2328.385009765625	358.0098571777344	-89.85880279541016	2258.1328125	395.5711364746094	-90.94368743896484	1827.829833984375	206.6260070800781	-328.5198669433594	2215.49755859375	205.4251403808594	-116.8658218383789	2385.70263671875	124.8154067993164	-120.6891632080078	2161.77490234375	204.9287414550781	-181.0485229492188	2173.658203125	173.4330902099609	-209.7607421875	2149.84375	180.6457824707031	-157.1865844726562	1763.480224609375	236.4579315185547	-296.6688232421875
